<mxfile host="app.diagrams.net" modified="2024-05-31T15:15:31.693Z" agent="Mozilla/5.0 (Windows NT 10.0; Win64; x64) AppleWebKit/537.36 (KHTML, like Gecko) Chrome/122.0.0.0 Safari/537.36" etag="-uCFYeo2wAMGgsb7T2kp" version="24.4.8" type="device">
  <diagram name="Seite-1" id="US1hScoEw8jUJkan1iNF">
    <mxGraphModel dx="2385" dy="1480" grid="1" gridSize="10" guides="1" tooltips="1" connect="1" arrows="1" fold="1" page="1" pageScale="1" pageWidth="827" pageHeight="1169" math="0" shadow="0">
      <root>
        <mxCell id="0" />
        <mxCell id="1" parent="0" />
        <mxCell id="nHh46F-s5IoTgE7A37Pn-7" value="" style="edgeStyle=orthogonalEdgeStyle;rounded=0;orthogonalLoop=1;jettySize=auto;html=1;entryX=0.5;entryY=0.5;entryDx=0;entryDy=0;entryPerimeter=0;" parent="1" source="nHh46F-s5IoTgE7A37Pn-2" target="nHh46F-s5IoTgE7A37Pn-4" edge="1">
          <mxGeometry relative="1" as="geometry">
            <mxPoint x="35" y="220" as="targetPoint" />
          </mxGeometry>
        </mxCell>
        <mxCell id="nHh46F-s5IoTgE7A37Pn-19" value="" style="rounded=0;orthogonalLoop=1;jettySize=auto;html=1;entryX=0;entryY=0.5;entryDx=0;entryDy=0;endArrow=none;endFill=0;" parent="1" source="nHh46F-s5IoTgE7A37Pn-2" target="nHh46F-s5IoTgE7A37Pn-11" edge="1">
          <mxGeometry relative="1" as="geometry" />
        </mxCell>
        <mxCell id="nHh46F-s5IoTgE7A37Pn-2" value="Unternehmer" style="shape=umlActor;verticalLabelPosition=bottom;verticalAlign=top;html=1;" parent="1" vertex="1">
          <mxGeometry x="20" y="300" width="30" height="60" as="geometry" />
        </mxCell>
        <mxCell id="nHh46F-s5IoTgE7A37Pn-3" value="&lt;font style=&quot;font-size: 11px;&quot;&gt;NullPointerCollaboration Portal&lt;/font&gt;" style="shape=umlFrame;whiteSpace=wrap;html=1;pointerEvents=0;align=left;" parent="1" vertex="1">
          <mxGeometry x="149" y="40" width="521" height="810" as="geometry" />
        </mxCell>
        <mxCell id="nHh46F-s5IoTgE7A37Pn-10" value="" style="rounded=0;orthogonalLoop=1;jettySize=auto;html=1;entryX=0;entryY=0.5;entryDx=0;entryDy=0;endArrow=none;endFill=0;" parent="1" source="nHh46F-s5IoTgE7A37Pn-4" target="nHh46F-s5IoTgE7A37Pn-8" edge="1">
          <mxGeometry relative="1" as="geometry" />
        </mxCell>
        <mxCell id="nHh46F-s5IoTgE7A37Pn-4" value="Benutzer" style="shape=umlActor;verticalLabelPosition=bottom;verticalAlign=top;html=1;" parent="1" vertex="1">
          <mxGeometry x="20" y="100" width="30" height="60" as="geometry" />
        </mxCell>
        <mxCell id="nHh46F-s5IoTgE7A37Pn-8" value="Login" style="ellipse;whiteSpace=wrap;html=1;" parent="1" vertex="1">
          <mxGeometry x="265" y="100" width="140" height="60" as="geometry" />
        </mxCell>
        <mxCell id="zgOvxPKeFQrhtDSbZoKe-11" value="" style="edgeStyle=orthogonalEdgeStyle;rounded=0;orthogonalLoop=1;jettySize=auto;html=1;entryX=0;entryY=0.5;entryDx=0;entryDy=0;dashed=1;" edge="1" parent="1" source="nHh46F-s5IoTgE7A37Pn-11" target="zgOvxPKeFQrhtDSbZoKe-4">
          <mxGeometry relative="1" as="geometry">
            <mxPoint x="430" y="380" as="targetPoint" />
          </mxGeometry>
        </mxCell>
        <mxCell id="nHh46F-s5IoTgE7A37Pn-11" value="Projektausschreibung einstellen" style="ellipse;whiteSpace=wrap;html=1;" parent="1" vertex="1">
          <mxGeometry x="250" y="295" width="140" height="70" as="geometry" />
        </mxCell>
        <mxCell id="nHh46F-s5IoTgE7A37Pn-21" value="" style="rounded=0;orthogonalLoop=1;jettySize=auto;html=1;entryX=0;entryY=0.5;entryDx=0;entryDy=0;dashed=1;exitX=0.968;exitY=0.693;exitDx=0;exitDy=0;exitPerimeter=0;" parent="1" source="nHh46F-s5IoTgE7A37Pn-11" target="nHh46F-s5IoTgE7A37Pn-12" edge="1">
          <mxGeometry relative="1" as="geometry">
            <mxPoint x="350" y="235" as="targetPoint" />
          </mxGeometry>
        </mxCell>
        <mxCell id="nHh46F-s5IoTgE7A37Pn-12" value="Verifikation der Daten" style="ellipse;whiteSpace=wrap;html=1;" parent="1" vertex="1">
          <mxGeometry x="494.5" y="390" width="140" height="70" as="geometry" />
        </mxCell>
        <mxCell id="nHh46F-s5IoTgE7A37Pn-23" value="" style="rounded=0;orthogonalLoop=1;jettySize=auto;html=1;entryX=0;entryY=0;entryDx=0;entryDy=0;dashed=1;exitX=1;exitY=1;exitDx=0;exitDy=0;" parent="1" source="nHh46F-s5IoTgE7A37Pn-11" target="nHh46F-s5IoTgE7A37Pn-13" edge="1">
          <mxGeometry relative="1" as="geometry" />
        </mxCell>
        <mxCell id="nHh46F-s5IoTgE7A37Pn-13" value="Bankdaten ermitteln" style="ellipse;whiteSpace=wrap;html=1;" parent="1" vertex="1">
          <mxGeometry x="354.5" y="500" width="140" height="70" as="geometry" />
        </mxCell>
        <mxCell id="nHh46F-s5IoTgE7A37Pn-26" value="" style="rounded=0;orthogonalLoop=1;jettySize=auto;html=1;entryX=0.5;entryY=0;entryDx=0;entryDy=0;dashed=1;exitX=0.5;exitY=1;exitDx=0;exitDy=0;" parent="1" source="nHh46F-s5IoTgE7A37Pn-11" target="nHh46F-s5IoTgE7A37Pn-14" edge="1">
          <mxGeometry relative="1" as="geometry">
            <mxPoint x="270" y="500" as="targetPoint" />
          </mxGeometry>
        </mxCell>
        <mxCell id="nHh46F-s5IoTgE7A37Pn-14" value="Bankeinzug durchfÃ¼hren" style="ellipse;whiteSpace=wrap;html=1;" parent="1" vertex="1">
          <mxGeometry x="180" y="500" width="140" height="70" as="geometry" />
        </mxCell>
        <mxCell id="nHh46F-s5IoTgE7A37Pn-17" value="" style="edgeStyle=orthogonalEdgeStyle;rounded=0;orthogonalLoop=1;jettySize=auto;html=1;dashed=1;exitX=0.5;exitY=1;exitDx=0;exitDy=0;" parent="1" source="nHh46F-s5IoTgE7A37Pn-14" target="nHh46F-s5IoTgE7A37Pn-15" edge="1">
          <mxGeometry relative="1" as="geometry">
            <mxPoint x="389.5" y="507" as="targetPoint" />
          </mxGeometry>
        </mxCell>
        <mxCell id="nHh46F-s5IoTgE7A37Pn-15" value="Urheber informieren" style="ellipse;whiteSpace=wrap;html=1;" parent="1" vertex="1">
          <mxGeometry x="180" y="650" width="140" height="70" as="geometry" />
        </mxCell>
        <mxCell id="nHh46F-s5IoTgE7A37Pn-18" value="&amp;lt;&amp;lt;include&amp;gt;&amp;gt;" style="text;html=1;align=center;verticalAlign=middle;resizable=0;points=[];autosize=1;strokeColor=none;fillColor=none;" parent="1" vertex="1">
          <mxGeometry x="170" y="590" width="90" height="30" as="geometry" />
        </mxCell>
        <mxCell id="nHh46F-s5IoTgE7A37Pn-24" value="&amp;lt;&amp;lt;include&amp;gt;&amp;gt;" style="text;html=1;align=center;verticalAlign=middle;resizable=0;points=[];autosize=1;strokeColor=none;fillColor=none;" parent="1" vertex="1">
          <mxGeometry x="364" y="420" width="90" height="30" as="geometry" />
        </mxCell>
        <mxCell id="nHh46F-s5IoTgE7A37Pn-27" value="&amp;lt;&amp;lt;include&amp;gt;&amp;gt;" style="text;html=1;align=center;verticalAlign=middle;resizable=0;points=[];autosize=1;strokeColor=none;fillColor=none;" parent="1" vertex="1">
          <mxGeometry x="190" y="410" width="90" height="30" as="geometry" />
        </mxCell>
        <mxCell id="zgOvxPKeFQrhtDSbZoKe-2" value="Registration" style="ellipse;whiteSpace=wrap;html=1;" vertex="1" parent="1">
          <mxGeometry x="200" y="200" width="140" height="70" as="geometry" />
        </mxCell>
        <mxCell id="zgOvxPKeFQrhtDSbZoKe-3" value="" style="rounded=0;orthogonalLoop=1;jettySize=auto;html=1;entryX=0;entryY=1;entryDx=0;entryDy=0;endArrow=none;endFill=0;" edge="1" parent="1" source="nHh46F-s5IoTgE7A37Pn-2" target="zgOvxPKeFQrhtDSbZoKe-2">
          <mxGeometry relative="1" as="geometry">
            <mxPoint x="60" y="340" as="sourcePoint" />
            <mxPoint x="260" y="340" as="targetPoint" />
          </mxGeometry>
        </mxCell>
        <mxCell id="zgOvxPKeFQrhtDSbZoKe-4" value="Speichern der Projektausschreibung" style="ellipse;whiteSpace=wrap;html=1;" vertex="1" parent="1">
          <mxGeometry x="1015" y="220" width="140" height="70" as="geometry" />
        </mxCell>
        <mxCell id="zgOvxPKeFQrhtDSbZoKe-6" value="&amp;lt;&amp;lt;include&amp;gt;&amp;gt;" style="text;html=1;align=center;verticalAlign=middle;resizable=0;points=[];autosize=1;strokeColor=none;fillColor=none;" vertex="1" parent="1">
          <mxGeometry x="500" y="300" width="90" height="30" as="geometry" />
        </mxCell>
        <mxCell id="zgOvxPKeFQrhtDSbZoKe-10" value="&lt;font style=&quot;font-size: 11px;&quot;&gt;Cloud&lt;/font&gt;" style="shape=umlFrame;whiteSpace=wrap;html=1;pointerEvents=0;align=left;" vertex="1" parent="1">
          <mxGeometry x="970" y="60" width="230" height="400" as="geometry" />
        </mxCell>
      </root>
    </mxGraphModel>
  </diagram>
</mxfile>
